# xmcd CD database file
#
# Track frame offsets:
#	150
#	14405
#	32679
#	52235
#	67974
#	83093
#	99960
#	116716
#	127411
#	142694
#	159655
#	173367
#
# Disc length: 2492 seconds
#
# Revision: 0
# Processed by: cddbd v1.5.2PL0 Copyright (c) Steve Scherf et al.
# Submitted via: CDex 1.70beta2
#
DISCID=9909ba0c
DTITLE=Wouter Hamel - Nobody's tune
DYEAR=2009
DGENRE=Jazz
TTITLE0=One more time on the merry-go round
TTITLE1=Big blue sea
TTITLE2=When morning comes
TTITLE3=In between
TTITLE4=Nobody's tune
TTITLE5=Sir Henry
TTITLE6=March, April, May
TTITLE7=Quite the disguise
TTITLE8=Once in a lifetime
TTITLE9=Tiny town
TTITLE10=See you once again
TTITLE11=Amsterdam
EXTD=YEAR: 2009
EXTT0=
EXTT1=
EXTT2=
EXTT3=
EXTT4=
EXTT5=
EXTT6=
EXTT7=
EXTT8=
EXTT9=
EXTT10=
EXTT11=
PLAYORDER=
